<svg xmlns="http://www.w3.org/2000/svg" viewBox="0 0 620 980" role="img" aria-label="Portrait placeholder"><defs><linearGradient id="skin" x1="0" y1="0" x2="1" y2="1"><stop offset="0" stop-color="#747775"/><stop offset="1" stop-color="#1a1c1d"/></linearGradient><linearGradient id="shirt" x1="0" y1="0" x2="1" y2="1"><stop offset="0" stop-color="#555a56"/><stop offset=".55" stop-color="#292c2d"/><stop offset="1" stop-color="#101112"/></linearGradient><filter id="shadow" x="-40%" y="-40%" width="180%" height="180%"><feDropShadow dx="0" dy="28" stdDeviation="24" flood-color="#000" flood-opacity=".5"/></filter></defs><g filter="url(#shadow)"><path d="M189 376c35-44 205-44 240 0 45 56 67 214 58 507H132c-10-293 12-451 57-507Z" fill="url(#shirt)"/><path d="M214 500c-30 113-46 246-48 383H93c8-214 33-372 96-507 18 14 28 57 25 124Z" fill="#181a1b"/><path d="M405 500c30 113 47 246 49 383h73c-8-214-33-372-97-507-18 14-28 57-25 124Z" fill="#181a1b"/><path d="M252 312h116l8 72c-20 32-107 32-132 0l8-72Z" fill="#303434"/><path d="M215 166c5-75 50-122 96-122 55 0 95 48 99 123 5 90-33 165-98 165-64 0-103-75-97-166Z" fill="url(#skin)"/><path d="M205 156c12-90 80-126 138-105 51 18 77 68 65 126-59-19-119-41-203-21Z" fill="#101111"/><path d="M246 207c19 13 40 14 62 2 21 13 41 13 62 0-7 49-28 79-62 79-35 0-56-31-62-81Z" fill="#151717" opacity=".82"/><path d="M216 884h104l-17 66H182c5-36 17-58 34-66Zm185 0h104c18 8 29 30 34 66H419l-18-66Z" fill="#e5e6e5"/></g></svg>
